<svg width="104" height="194" viewBox="0 0 104 194" fill="none" xmlns="http://www.w3.org/2000/svg">
<path fill-rule="evenodd" clip-rule="evenodd" d="M35.8083 2.45025C16.6613 9.21025 5.18328 25.2882 3.37128 47.8852C3.03228 52.1152 2.03027 57.0092 1.14327 58.7602C-0.264727 61.5422 -0.321725 63.1793 0.695274 71.7603C4.39427 102.977 17.4833 126.265 36.6843 135.792C42.9583 138.905 44.9433 139.405 51.1843 139.446C73.3923 139.591 91.6343 120.53 100.392 88.0293C103.826 75.2853 104.749 62.5892 102.55 58.3372C101.651 56.5982 100.912 53.2403 100.907 50.8763C100.867 27.8803 87.8403 9.05125 67.1973 2.15425C58.2723 -0.827751 44.7343 -0.699753 35.8083 2.45025ZM79.1623 24.0092C80.1933 25.1112 79.9793 25.2422 77.9553 24.7512C73.9063 23.7682 67.2053 26.0722 62.6733 30.0052C56.0913 35.7182 53.7203 37.0802 50.4423 37.0312L47.4153 36.9863L50.1083 35.7812C51.5893 35.1183 54.3263 32.6322 56.1903 30.2562C61.6243 23.3292 64.3853 21.9132 71.6623 22.3212C75.1643 22.5172 78.4603 23.2592 79.1623 24.0092ZM32.7173 36.4743C34.2043 37.2423 36.3193 38.8812 37.4173 40.1152C42.1053 45.3802 52.4233 47.5623 59.2163 44.7243C60.9963 43.9803 64.6083 41.5053 67.2443 39.2243C71.1583 35.8363 72.7773 35.0762 76.0753 35.0762C81.4103 35.0762 84.7993 38.6912 88.2883 48.1032C91.4063 56.5142 91.3573 56.0743 89.1653 56.0853C85.3503 56.1053 66.9763 61.3622 59.5913 64.5462L51.7683 67.9193L47.0913 65.5973C41.5123 62.8263 28.7523 58.7402 20.0903 56.9512C13.8543 55.6632 13.8483 55.6592 14.4823 52.6192C15.5293 47.6062 18.8523 40.7542 21.6563 37.8262C24.6163 34.7352 28.4483 34.2663 32.7173 36.4743ZM35.5763 71.1292C39.0623 72.2902 41.9153 73.6062 41.9153 74.0542C41.9153 74.5022 40.3243 76.2652 38.3803 77.9722C34.3503 81.5112 28.8863 82.1453 25.1243 79.5103C22.8893 77.9453 18.9153 71.2032 18.9153 68.9772C18.9153 67.3382 27.5243 68.4502 35.5763 71.1292ZM84.9153 69.6263C84.9153 72.1403 82.1553 76.7423 79.3003 78.9883C76.3743 81.2903 71.9683 81.6862 68.5993 79.9512C65.8743 78.5482 61.9153 74.9892 61.9153 73.9442C61.9153 72.7262 76.9663 68.1752 81.1653 68.1232C83.9053 68.0892 84.9153 68.4933 84.9153 69.6263ZM56.4623 83.1613C60.9263 87.7743 65.8243 90.5933 71.0913 91.5813C73.8043 92.0903 76.2193 91.6072 81.0443 89.5892C90.2613 85.7352 90.9153 85.5952 90.9153 87.4742C90.9153 90.8992 83.8533 106.409 79.5443 112.448C69.3163 126.78 58.5753 131.898 45.6643 128.59C35.2303 125.917 27.6943 119.15 20.5913 106.076C17.3393 100.09 12.9153 88.5722 12.9153 86.0912C12.9153 85.5142 15.0533 86.1132 17.6653 87.4232C26.2593 91.7292 29.4323 92.3912 35.0353 91.0472C38.8703 90.1272 41.4363 88.5573 45.7473 84.4933C48.8643 81.5543 51.6613 79.1332 51.9623 79.1122C52.2633 79.0922 54.2883 80.9143 56.4623 83.1613ZM44.9153 98.2623C44.9153 98.9143 45.7973 100.386 46.8743 101.532L48.8333 103.618L42.8743 105.929C33.7313 109.474 35.4933 111.924 45.5123 109.595C50.2793 108.487 52.4833 108.475 58.0153 109.529C68.7943 111.583 70.2663 108.896 60.1583 105.616L54.9003 103.91L56.8943 101.376C57.9913 99.9823 58.6423 98.4443 58.3423 97.9583C57.4853 96.5713 44.9153 96.8553 44.9153 98.2623ZM5.94328 151.189C2.87728 152.413 1.95028 153.817 1.93028 157.269C1.91128 160.601 5.17128 163.076 9.57828 163.076C13.4603 163.076 14.8903 164.89 12.4293 166.69C11.2493 167.553 9.14928 167.796 6.27628 167.402C2.63928 166.903 1.91528 167.08 1.91528 168.465C1.91528 172.668 14.8213 173.146 18.1263 169.064C21.8543 164.46 19.1553 159.85 12.0673 158.716C9.53928 158.312 7.91528 157.516 7.91528 156.681C7.91528 154.965 11.3493 154.013 14.9423 154.731C18.3923 155.421 19.9493 153.306 17.3773 151.424C15.2513 149.87 9.54228 149.753 5.94328 151.189ZM23.1153 151.276C22.4013 151.99 21.9153 155.432 21.9153 159.776C21.9153 165.711 22.2843 167.445 23.8903 169.051C27.8453 173.006 36.5433 172.873 39.3863 168.814C41.5483 165.727 41.4883 153.791 39.2993 151.603C36.4633 148.767 35.4353 150.422 34.9153 158.655L34.4153 166.576H31.4153H28.4153L28.1153 159.618C27.7493 151.158 26.0573 148.334 23.1153 151.276ZM46.1653 151.107C44.0683 151.95 43.9153 152.616 43.9153 160.921C43.9153 167.621 44.2873 170.14 45.4153 171.076C47.5303 172.831 49.9153 170.675 49.9153 167.008C49.9153 164.353 50.1953 164.167 54.6333 163.881C58.4933 163.631 59.6113 163.109 60.7863 161.007C62.9483 157.139 61.5643 153.245 57.4123 151.51C53.5643 149.903 49.5223 149.758 46.1653 151.107ZM68.4153 150.8C64.5493 151.75 63.9153 153.123 63.9153 160.543C63.9153 170.024 65.1633 171.297 74.0503 170.877C78.9073 170.647 80.4153 170.221 80.4153 169.076C80.4153 168.01 78.9723 167.431 75.4243 167.076C71.7863 166.712 70.3453 166.118 70.1123 164.887C69.8583 163.548 70.6863 163.132 74.0953 162.887C77.2463 162.659 78.4873 162.108 78.7303 160.826C79.0073 159.366 78.3043 159.076 74.4883 159.076C70.5823 159.076 69.9153 158.784 69.9153 157.076C69.9153 155.346 70.5823 155.076 74.8563 155.076C80.2963 155.076 82.2323 153.512 79.3773 151.424C77.5773 150.108 72.4233 149.814 68.4153 150.8ZM85.6653 151.109C84.1973 152.004 83.9153 153.698 83.9153 161.626C83.9153 170.922 83.9543 171.076 86.3043 171.076C88.2423 171.076 88.8163 170.416 89.3493 167.576C90.1793 163.15 91.8023 163.154 94.6743 167.588C96.2583 170.034 97.6783 171.076 99.4243 171.076C102.363 171.076 102.499 170.255 100.219 166.282C98.6233 163.502 98.6233 163.225 100.219 161.63C102.42 159.428 102.392 154.812 100.165 152.823C97.9473 150.842 88.0283 149.669 85.6653 151.109ZM54.3863 155.431C56.8773 157.253 55.6983 160.076 52.4463 160.076C50.4613 160.076 49.9153 159.573 49.9153 157.743C49.9153 153.938 51.3383 153.202 54.3863 155.431ZM94.3333 154.683C96.8573 155.651 96.2303 158.78 93.3693 159.498C90.2923 160.271 88.9153 159.555 88.9153 157.184C88.9153 154.211 90.8163 153.333 94.3333 154.683ZM1.52128 175.905C1.05928 176.652 4.79128 187.371 6.80428 191.076C7.89728 193.088 11.3163 193.503 12.7333 191.795C14.9793 189.089 19.0453 176.806 18.0313 175.792C16.1433 173.904 14.0393 176.006 12.3023 181.518C10.5863 186.96 8.93727 188.803 8.89327 185.326C8.82627 180.006 3.32928 172.98 1.52128 175.905ZM24.5043 177.326C23.7023 178.564 22.0693 182.205 20.8743 185.419C19.2103 189.895 18.9773 191.533 19.8793 192.419C20.7743 193.298 21.4993 193.035 22.8963 191.326C25.3343 188.344 30.1593 188.305 32.1153 191.251C33.8963 193.932 37.5793 193.126 36.3783 190.318C35.9683 189.36 34.6843 186.101 33.5243 183.076C32.3643 180.051 31.0513 177.014 30.6063 176.326C29.3223 174.342 26.0943 174.871 24.5043 177.326ZM38.5823 175.743C38.2153 176.109 37.9153 179.694 37.9153 183.707C37.9153 192.163 39.0343 193.402 46.2033 192.882C51.7793 192.477 52.1313 189.718 46.6653 189.266L42.9153 188.955V182.623C42.9153 177.771 42.5453 176.148 41.3333 175.683C39.3753 174.931 39.3933 174.931 38.5823 175.743ZM54.1653 176.598C52.3023 177.916 51.9153 179.126 51.9153 183.633C51.9153 190.474 54.0973 193.076 59.8333 193.076C67.7453 193.076 69.7303 190.367 62.1743 189.881C58.6023 189.651 57.3513 189.145 57.1013 187.826C56.8393 186.446 57.4713 186.073 60.0923 186.061C61.9203 186.052 64.0353 185.653 64.7933 185.172C67.1023 183.71 65.0253 182.076 60.8563 182.076C58.0203 182.076 56.9153 181.656 56.9153 180.576C56.9153 179.719 57.8793 179.03 59.1653 178.97C64.6913 178.709 65.4153 178.489 65.4153 177.076C65.4153 174.879 57.0963 174.526 54.1653 176.598ZM70.1203 175.928C68.1473 177.179 68.8743 192.576 70.9053 192.576C71.7693 192.576 72.6333 191.314 72.9613 189.576C73.6533 185.906 75.5263 186.09 78.7373 190.144C82.6633 195.099 85.6413 193.641 82.2303 188.434C80.6503 186.023 80.6503 185.804 82.2303 184.92C84.7153 183.529 84.3913 178.523 81.6923 176.633C79.3343 174.981 72.2893 174.552 70.1203 175.928ZM90.8013 177.826C85.9733 190.303 85.7133 191.274 86.9043 192.419C87.8213 193.302 88.4673 193.044 89.6323 191.326C90.6403 189.841 92.1683 189.076 94.1273 189.076C95.9933 189.076 97.7773 189.911 98.9343 191.326C100.354 193.064 101.047 193.307 101.977 192.393C102.914 191.472 102.577 189.697 100.457 184.393C98.9583 180.644 97.2683 177.014 96.7013 176.326C94.9033 174.146 91.9333 174.901 90.8013 177.826ZM79.7253 180.826C79.4943 182.025 78.4513 182.576 76.4153 182.576C74.3793 182.576 73.3363 182.025 73.1053 180.826C72.8343 179.418 73.4803 179.076 76.4153 179.076C79.3503 179.076 79.9963 179.418 79.7253 180.826ZM29.3703 183.826C29.9473 185.737 29.6763 186.076 27.5693 186.076C25.2313 186.076 25.1533 185.905 26.2163 183.09C27.4073 179.935 28.2543 180.133 29.3703 183.826ZM95.8453 184.826C95.8833 185.514 95.0383 186.076 93.9673 186.076C92.2103 186.076 92.1283 185.762 93.1343 182.877C94.1173 180.058 94.3403 179.91 95.0123 181.627C95.4313 182.699 95.8063 184.139 95.8453 184.826Z" fill="#AD0404"/>
</svg>

